<?xml version="1.0" encoding="UTF-8" standalone="no"?>
<svg
   version="1.1"
   id="svg2"
   xml:space="preserve"
   width="530"
   height="178"
   viewBox="0 0 530 178"
   sodipodi:docname="sello.svg"
   inkscape:version="1.1.2 (0a00cf5339, 2022-02-04)"
   xmlns:inkscape="http://www.inkscape.org/namespaces/inkscape"
   xmlns:sodipodi="http://sodipodi.sourceforge.net/DTD/sodipodi-0.dtd"
   xmlns="http://www.w3.org/2000/svg"
   xmlns:svg="http://www.w3.org/2000/svg"
   xmlns:rdf="http://www.w3.org/1999/02/22-rdf-syntax-ns#"
   xmlns:cc="http://creativecommons.org/ns#"
   xmlns:dc="http://purl.org/dc/elements/1.1/"><metadata
     id="metadata8"><rdf:RDF><cc:Work
         rdf:about=""><dc:format>image/svg+xml</dc:format><dc:type
           rdf:resource="http://purl.org/dc/dcmitype/StillImage" /></cc:Work></rdf:RDF></metadata><defs
     id="defs6"><linearGradient
       x1="0"
       y1="0"
       x2="1"
       y2="0"
       gradientUnits="userSpaceOnUse"
       gradientTransform="matrix(297.33956,20.792006,20.792006,-297.33956,49.67453,714.73083)"
       spreadMethod="pad"
       id="linearGradient28"><stop
         style="stop-opacity:1;stop-color:#f49200"
         offset="0"
         id="stop24" /><stop
         style="stop-opacity:1;stop-color:#e5007e"
         offset="1"
         id="stop26" /></linearGradient></defs><sodipodi:namedview
     pagecolor="#ffffff"
     bordercolor="#666666"
     borderopacity="1"
     objecttolerance="10"
     gridtolerance="10"
     guidetolerance="10"
     inkscape:pageopacity="0"
     inkscape:pageshadow="2"
     inkscape:window-width="1850"
     inkscape:window-height="1016"
     id="namedview4"
     showgrid="false"
     inkscape:zoom="1.3289991"
     inkscape:cx="275.39522"
     inkscape:cy="272.76166"
     inkscape:window-x="0"
     inkscape:window-y="0"
     inkscape:window-maximized="1"
     inkscape:current-layer="g10"
     inkscape:document-rotation="0"
     inkscape:pagecheckerboard="0" /><g
     id="g10"
     inkscape:groupmode="layer"
     inkscape:label="LogoSesoLibreCMYK"
     transform="matrix(1.3333333,0,0,-1.3333333,0,1056)"><rect
       style="fill:none;fill-rule:evenodd;stroke-width:0.64572"
       id="rect15"
       width="393.44577"
       height="166.78604"
       x="2.4624414"
       y="-788.52448"
       transform="scale(1,-1)" /><path
       id="path30-5"
       style="fill:#ffffff;stroke:none;stroke-width:0.792717;fill-opacity:0.13561776"
       d="m 61.615234,667.97656 c -4.673346,0.18815 -9.207174,2.2023 -12.582031,5.41602 -1.084892,0.56506 -1.281346,2.10367 -0.451172,2.97461 2.016329,2.33804 3.96965,4.73168 5.960938,7.09179 -3.098593,2.13025 -5.058117,5.87088 -4.815243,9.65129 0.150952,4.40102 3.225999,8.38843 7.260238,10.01922 6.022911,2.62731 13.508354,0.95791 18.03352,-3.75058 0.971523,-0.61394 1.436162,-2.05676 0.594116,-2.96396 -1.796965,-2.0688 -3.446843,-4.27578 -5.187866,-6.39737 3.4489,-1.654 5.869577,-5.25257 6.00814,-9.08761 0.384409,-4.45005 -2.125822,-8.93236 -6.053062,-11.02958 -2.651989,-1.49363 -5.749218,-2.04316 -8.767578,-1.92383 z m 39.128906,-0.004 c -5.001222,0.0989 -9.993437,2.98386 -12.096048,7.60618 -2.163741,4.5268 -2.058358,10.0817 0.229548,14.53975 2.266915,4.34794 7.005006,7.38278 11.95595,7.25139 3.9833,0.0161 8.06696,-1.90542 10.1285,-5.40076 2.40264,-3.84922 2.62326,-8.70157 1.60432,-13.02195 -0.27353,-0.88492 -1.25094,-1.42236 -2.14844,-1.24219 0.94856,-1.72787 1.8962,-3.45624 2.8457,-5.1836 -2.77642,-2.06002 -5.88368,-3.85079 -9.35547,-4.35351 -1.04578,-0.16587 -2.10582,-0.23221 -3.16406,-0.19531 z m 69.86524,0 c -5.4376,0.15206 -10.59033,3.89438 -12.31063,9.07302 -1.73849,4.85165 -1.1625,10.61216 1.88875,14.82346 2.77746,3.76807 7.56315,5.89614 12.22068,5.4577 4.97707,-0.39992 9.64848,-3.71049 11.46276,-8.39793 1.97363,-4.78823 1.5756,-10.57644 -1.26156,-14.94063 -2.61755,-3.91942 -7.29025,-6.26883 -12,-6.01562 z m -36.44532,0.002 c -4.08347,0.23089 -8.05405,2.00259 -11.0332,4.78125 -0.74831,0.88914 -0.25917,2.16107 0.52344,2.85547 1.20352,1.75377 2.4883,3.45687 3.72265,5.1914 -2.08054,1.80575 -3.26753,4.58736 -2.99511,7.34408 0.22698,3.58442 2.67371,6.88143 6.02765,8.16161 4.869,2.0606 10.72003,1.02967 14.86419,-2.16098 0.91237,-0.6396 1.80608,-1.30547 2.7107,-1.95603 -1.62855,-2.18533 -3.2565,-4.37111 -4.88477,-6.55664 2.40385,-1.63629 3.89964,-4.47291 3.86718,-7.38359 0.0705,-3.33386 -1.69521,-6.64096 -4.58028,-8.34424 -2.43522,-1.52824 -5.38483,-2.02808 -8.22245,-1.93233 z m 139.62305,-0.004 c -1.34968,0.0767 -2.68326,0.43874 -3.88867,1.05078 -0.83814,-0.91698 -2.14026,-0.40394 -3.2125,-0.52148 -2.39336,0 -4.78672,0 -7.18008,0 0,12.51042 0,25.02083 0,37.53125 4.20508,0 8.41016,0 12.61523,0 0.002,-3.00846 0.0103,-6.01694 0.002,-9.02539 4.31652,1.16835 9.32701,-0.5184 11.8092,-4.30012 2.66139,-3.85921 3.10782,-8.83991 2.35841,-13.36276 -0.77837,-4.44847 -3.53086,-8.78674 -7.82789,-10.52738 -1.47112,-0.61926 -3.08103,-0.906 -4.67566,-0.8449 z m 67.53516,0.0547 c -4.73537,0.089 -9.45259,2.91564 -11.30413,7.35529 -2.02056,4.57108 -1.64239,10.21614 1.18694,14.36932 2.40789,3.46285 6.62872,5.63906 10.86719,5.31836 3.84362,-0.16321 7.61445,-2.40497 9.2544,-5.94306 1.87263,-3.70513 1.73113,-8.06964 0.75079,-12.00778 -0.0607,-0.63836 -1.01772,-0.17103 -1.48254,-0.31088 0.091,-0.42085 0.56731,-1.06985 0.80597,-1.57813 0.53004,-0.96636 1.06003,-1.93275 1.5913,-2.89843 -2.66212,-1.98717 -5.65019,-3.73629 -9.00211,-4.1593 -0.88251,-0.12794 -1.77646,-0.17997 -2.66781,-0.14539 z M 197.31055,670 c 0,11.27865 0,22.55729 0,33.83594 4.21028,0 8.42057,0 12.63086,0 0,-7.92448 0,-15.84896 0,-23.77344 3.86002,0 7.72005,0 11.58007,0 0,-3.85417 0,-7.70833 0,-11.5625 -8.07031,0 -16.14062,0 -24.21093,0 0,0.5 0,1 0,1.5 z m 36.25195,0 c 0,8.94336 0,17.88672 0,26.83008 1.00421,-0.21572 0.40222,0.37495 0.12109,0.9082 -1.28732,2.56477 -0.57221,5.91566 1.66109,7.72096 3.11608,2.61852 8.54072,1.86358 10.56157,-1.76393 1.20955,-2.11772 1.02218,-4.89346 -0.39453,-6.86523 0.91337,0.29072 0.64036,-0.60495 0.66797,-1.2 0,-9.04336 0,-18.08672 0,-27.13008 -4.20573,0 -8.41146,0 -12.61719,0 0,0.5 0,1 0,1.5 z m 65.2207,0 c 0,8.94336 0,17.88672 0,26.83008 3.68555,0 7.3711,0 11.05664,0 -0.15086,-0.91205 0.47534,-0.32334 0.93741,-0.16666 2.58815,1.09581 5.60722,0.89111 8.10823,-0.34568 0.38094,-0.31304 1.45456,-0.25361 1.29572,-0.8564 -0.70068,-3.62352 -1.39813,-7.24767 -2.09722,-10.8715 -1.52262,0.25986 -2.99544,0.78711 -4.52769,0.96948 -1.07195,0.059 -1.93783,-0.97896 -2.15785,-1.93862 0,-5.04023 0,-10.08047 0,-15.1207 -4.20508,0 -8.41016,0 -12.61524,0 0,0.5 0,1 0,1.5 z m -127.51953,9.30664 c 0.7282,0.1631 0.76772,1.14618 0.92193,1.74832 0.15056,1.62761 0.32286,3.46922 -0.63872,4.89231 -0.59407,0.33731 -1.01683,-0.30587 -1.09255,-0.82451 -0.52532,-1.72864 -0.44535,-3.6453 0.13161,-5.34542 0.14051,-0.23215 0.35698,-0.5698 0.67773,-0.4707 z m 101.50586,0.0781 c 0.79031,0.35117 0.8378,1.42313 0.98088,2.17583 0.096,1.333 0.25286,2.99694 -0.43986,4.32026 -0.45688,0.19711 -1.39872,-0.0219 -1.16602,-0.66797 -0.0493,-1.91632 -0.008,-3.8376 -0.0215,-5.75586 0.20968,-0.0579 0.42908,-0.0877 0.64648,-0.0723 z m -210.183592,0.3164 c -1.687669,0.73748 -3.40887,1.39627 -5.085938,2.15821 1.458423,-1.1376 3.18377,-2.14976 5.085938,-2.15821 z m 3.152343,12.33789 c -0.313543,0.18716 -1.520237,0.59163 -0.641243,0.25069 0.207525,-0.0811 0.46615,-0.18238 0.641243,-0.25069 z m 135.287109,23.08203 c -3.35175,0.001 -6.70033,1.58658 -8.64047,4.35506 -2.41326,3.11527 -4.37612,6.5465 -6.38883,9.92424 -0.26964,0.61841 -0.37062,0.9776 -0.45871,0.0912 -0.41392,-1.68649 -2.25909,-2.60967 -3.8991,-2.34388 -3.18507,0.29146 -6.09792,1.821 -9.27848,2.15805 -3.62616,0.56682 -7.18317,0.7373 -10.80031,0.95456 -8.56852,0.59314 -17.11396,1.0642 -25.70402,1.54628 -3.77275,0.31919 -7.51676,0.94379 -11.2294,1.67286 -3.28231,0.68176 -6.54206,2.16227 -8.64693,4.86115 -1.54092,1.86284 -2.93353,3.85366 -4.21352,5.90154 -0.59373,1.17627 -0.76752,2.85041 0.27735,3.82226 -2.58752,1.12166 -4.40936,3.38796 -6.25384,5.43003 -2.15675,2.55644 -4.23751,5.24147 -5.69266,8.26531 -0.430796,1.1541 -0.236835,2.54874 0.36602,3.56618 0.89727,0.15478 0.18408,0.62388 -0.13827,1.02364 -2.882801,3.60836 -5.113169,7.7255 -6.753823,12.03597 -0.627338,1.39655 -1.009386,3.18005 0.0107,4.49354 0.720562,0.89649 2.055655,1.40106 3.179897,1.05613 1.666459,-0.59331 2.503104,-2.25268 3.740569,-3.394 2.13915,-2.27123 4.29513,-4.54968 6.61873,-6.62582 2.18176,-1.02689 4.55355,-1.29539 6.88316,-1.72155 4.0528,-0.62082 7.9881,-1.05463 12.09043,-1.41833 9.11528,-0.8125 18.25551,-1.30679 27.37679,-2.03476 3.65001,-0.28682 7.29466,-0.72737 10.85201,-1.61665 4.50079,-1.10183 8.99564,-2.72745 12.69188,-5.59022 2.72794,-2.14603 4.79147,-5.30393 5.04503,-8.82591 0.36681,-3.12172 0.90184,-6.25217 1.0576,-9.40137 -0.0752,-0.80969 -0.48253,-1.57604 -1.09571,-2.10742 0.67581,-0.72962 1.33372,-1.47784 1.92383,-2.2793 -0.46478,4.05286 -0.92753,8.10988 -1.23437,12.17774 -0.18693,3.9258 0.62666,7.92899 2.63683,11.33089 3.39209,5.98285 10.1231,9.95286 17.02407,9.81783 5.0934,-0.0451 10.10401,-2.28852 13.52946,-6.05937 4.02787,-4.32423 5.85885,-10.50408 5.01358,-16.33583 -0.48747,-3.51297 -0.46209,-7.07514 -0.67878,-10.61187 -0.13786,-0.77904 0.15868,-0.33082 0.47896,0.0814 0.52069,0.63104 1.09076,1.27691 1.59353,1.88438 -1.44581,1.19224 -1.07876,3.30599 -0.83593,4.86719 0.35099,2.90339 0.60882,5.83033 1.19058,8.69846 1.0923,4.15339 4.57263,7.18109 8.27222,9.07018 6.07797,3.09902 12.90658,4.36617 19.65831,4.8685 7.67381,0.65485 15.40925,1.04907 23.05857,1.68121 6.79333,0.57509 13.61752,1.10472 20.30788,2.46735 1.48932,0.42354 3.20434,0.64158 4.24991,1.91315 2.7945,2.75101 5.52219,5.57099 8.13753,8.4945 0.87032,0.69924 2.09722,1.05327 3.14251,0.54656 1.50574,-0.5042 2.19804,-2.29816 1.81508,-3.76926 -0.49184,-2.10843 -1.52332,-4.04418 -2.43619,-5.9948 -1.47552,-3.01894 -3.26768,-5.94559 -5.49797,-8.4407 0.93747,-0.60543 1.2032,-1.87972 1.10018,-2.91264 -0.45189,-2.1964 -1.98034,-3.94391 -3.19783,-5.75923 -2.17741,-2.95463 -4.54019,-5.85109 -7.47874,-8.0781 -0.48462,-0.29327 -0.99062,-0.5508 -1.50954,-0.77737 1.16724,-1.14076 0.87944,-3.04123 0.0188,-4.2759 -1.04288,-1.75915 -2.3372,-3.35507 -3.52725,-5.01446 -1.92983,-2.46086 -4.67394,-4.26696 -7.73143,-4.96511 -3.63836,-0.9663 -7.39219,-1.39274 -11.11399,-1.89441 -6.89917,-0.52725 -13.79377,-0.73664 -20.67395,-1.24947 -5.16477,-0.36052 -10.34324,-0.57428 -15.49364,-1.11042 -2.84116,-0.32725 -5.61746,-1.03912 -8.33326,-1.91579 -1.67704,-0.40262 -3.63166,-0.98806 -5.21947,-0.0119 -0.66182,0.41746 -1.18142,1.07027 -1.40235,1.82422 -1.87797,-3.71415 -3.48319,-7.63875 -6.13086,-10.89453 -2.05291,-2.43367 -5.33194,-3.3739 -8.41789,-3.40003 -1.0773,-0.0528 -2.15587,-0.0797 -3.23445,-0.0512 z m 3.9668,9.51368 c 0.654,-0.0356 1.33852,0.16074 1.63936,0.79092 2.06812,2.67202 3.91829,5.51787 5.73326,8.35755 0.71605,2.27346 0.94899,4.65749 1.23089,7.01364 -0.96674,-1.39106 -2.75988,-1.89428 -4.37812,-1.6783 -0.67654,0.19915 -0.89837,-0.23295 -1.04766,-0.80803 -0.56561,-1.50272 -2.05955,-2.98372 -3.78711,-2.58789 -1.68462,0.18425 -2.67615,1.95924 -2.60756,3.53574 -0.12269,2.3358 -0.19344,4.7171 0.25795,7.0209 0.53389,2.03823 2.4379,3.67943 4.58812,3.63814 1.9878,0.13086 3.9903,0.14116 5.97829,0.0708 0.55146,-0.0821 1.08725,-0.2741 1.56445,-0.5625 0.23257,1.83434 0.14324,3.74983 -0.63047,5.45797 -1.20755,2.96376 -4.01475,5.04555 -7.12738,5.56552 -3.953,0.70483 -8.37125,-1.04153 -10.36347,-4.61968 -1.33725,-2.24604 -1.37907,-4.93909 -1.26344,-7.4723 0.0755,-4.60467 0.17327,-9.14664 0.76496,-13.73799 0.20116,-1.26976 1.09377,-2.27893 1.60856,-3.43155 1.17502,-2.12274 2.25891,-4.34938 3.75734,-6.2522 1.21846,-0.34941 2.52846,-0.20573 3.78553,-0.29647 0.0988,-0.001 0.19766,-0.004 0.2965,-0.004 z m -20.09961,8.10742 c -0.13884,0.26515 -0.0685,1.37428 -0.35938,0.9707 -0.59416,-0.37195 -0.48355,-0.61723 0.04,-0.98034 0.32798,-0.24899 0.5907,-0.97627 0.31942,0.01 z m 35.08008,0.19726 c 0.76688,0.10112 -0.2326,1.05681 -0.11619,0.41389 0.048,-0.13917 -0.21822,-0.87759 0.11619,-0.41389 z m 40.51367,10.10157 c 4.68672,0.52619 9.39496,0.96921 14.07226,1.63086 -4.68097,-0.57411 -9.42195,-1.07415 -14.07226,-1.63086 z m -118.96485,0.27734 c -4.22003,0.48524 -8.44422,0.93952 -12.6582,1.47461 4.79797,-0.66084 9.61472,-1.18135 14.43164,-1.68555 -0.59114,0.0703 -1.18229,0.14063 -1.77344,0.21094 z m 94.05274,7.70508 c 4.3427,1.77958 8.97152,2.69659 13.58203,3.46875 -3.68553,-0.49392 -7.4396,-0.85216 -10.97266,-2.07617 -1.10091,-0.40444 -2.15634,-0.93497 -3.11718,-1.60938 0.16927,0.0723 0.33854,0.14453 0.50781,0.2168 z m -66.38086,-0.14258 c -3.62041,2.41878 -8.08939,2.75401 -12.27194,3.4088 -0.70427,0.0877 -1.40855,0.17538 -2.11283,0.26307 4.92646,-0.76777 9.84912,-1.8248 14.47071,-3.73632 l -0.08,0.06 z m 97.70508,5.86719 c 6.34944,0.77635 12.70551,1.54259 19.00195,2.68359 1.2637,0.23026 2.72533,0.53281 4.03516,0.91797 -7.84059,-1.47579 -15.73784,-2.63181 -23.64649,-3.67578 0.20313,0.0247 0.40625,0.0495 0.60938,0.0742 z m -130.81446,0.18359 c -7.26554,0.98797 -14.52199,2.06189 -21.7246,3.44141 4.45165,-1.21964 9.05189,-1.75443 13.60876,-2.42463 3.21683,-0.43861 6.45052,-0.83937 9.65686,-1.2199 -0.51367,0.0677 -1.02734,0.13541 -1.54102,0.20312 z" /><path
       d="m 309.06422,781.51607 c -1.72654,-1.97228 -4.61758,-5.09242 -8.80312,-9.10595 v 0 c -4.45428,-4.27195 -45.22928,-5.16059 -54.33443,-6.67864 v 0 c -9.10674,-1.51805 -18.80484,-5.11382 -19.73153,-12.14126 v 0 c -1.20097,-9.10911 -1.11694,-9.3176 -1.11694,-9.3176 v 0 c 0.11812,-1.18907 3.68534,3.68614 5.11144,5.58787 v 0 c 4.24897,5.66396 8.45116,6.76504 17.25429,7.97949 v 0 c 5.90812,0.81491 48.2638,5.46341 53.12078,9.10515 v 0 c 4.59142,3.44356 9.22723,14.68747 8.65251,14.68747 v 0 c -0.0333,7.9e-4 -0.084,-0.0373 -0.153,-0.11653 M 105.4857,766.94513 c 4.85698,-3.64174 47.21345,-8.29024 53.12157,-9.10515 v 0 c 8.80312,-1.21445 13.00532,-2.31553 17.2527,-7.97949 v 0 c 1.42689,-1.90173 4.99412,-6.77694 5.11303,-5.58787 v 0 c 0,0 0.0832,0.20849 -1.11774,9.3176 v 0 c -0.92668,7.02744 -10.62479,10.62321 -19.73073,12.14126 v 0 c -9.10674,1.51805 -49.88094,2.40669 -54.33522,6.67864 v 0 c -4.18555,4.01353 -7.075797,7.13367 -8.802335,9.10595 v 0 c -0.06976,0.0793 -0.120493,0.11653 -0.153788,0.11653 v 0 c -0.57472,0.002 4.061093,-11.24311 8.652513,-14.68747 m 84.67093,-3.36667 c -1.61239,-2.05552 -2.7539,-4.48916 -3.26759,-7.0425 v 0 c -0.16092,-0.63021 -0.195,-1.2842 -0.28458,-1.92551 v 0 c -0.061,-0.64448 -0.0404,-1.29292 -0.0547,-1.93503 v 0 l 0.0563,-1.64568 c 0.0349,-0.58899 0.0523,-1.15895 0.2077,-2.00161 v 0 c 0.27031,-2.9386 0.54618,-5.8455 0.91876,-8.773 v 0 c 0.19738,-1.51568 0.38446,-3.03135 0.6421,-4.57715 v 0 c 0.13714,-0.78162 0.26794,-1.54659 0.47801,-2.3948 v 0 c 0.0539,-0.21403 0.0935,-0.40825 0.17598,-0.66192 v 0 l 0.11336,-0.35751 0.0579,-0.17916 0.10305,-0.2505 c 0.0737,-0.16964 0.15379,-0.33849 0.23623,-0.50337 v 0 c 0.0793,-0.153 0.10464,-0.17836 0.16013,-0.27428 v 0 l 0.28855,-0.47722 c 1.56641,-2.57316 3.0908,-5.16455 4.92039,-7.73613 v 0 c 0.47405,-0.63893 0.95126,-1.30877 1.67581,-2.01667 v 0 c 0.69442,-0.68332 1.64409,-1.29609 2.61596,-1.61318 v 0 c 0.97663,-0.33453 1.89618,-0.41697 2.73488,-0.45898 v 0 c 0.84107,-0.0325 1.61556,-0.008 2.3837,0.0182 v 0 c 0.76973,0.0285 1.56165,0.0626 2.41303,0.17123 v 0 c 0.84742,0.11415 1.79947,0.32026 2.70158,0.79271 v 0 c 0.90449,0.46612 1.63459,1.15658 2.18077,1.85179 v 0 c 0.55252,0.70869 0.94809,1.36268 1.35554,2.03253 v 0 c 1.55056,2.66829 2.83318,5.39048 4.13165,8.10157 v 0 c 0.14189,0.25763 0.39398,0.89973 0.43441,1.24694 v 0 c 0.0983,0.41539 0.12287,0.78876 0.18153,1.18115 v 0 c 0.0785,0.76815 0.14586,1.52598 0.18787,2.28224 v 0 c 0.0785,1.5125 0.16409,3.01391 0.218,4.5169 v 0 c 0.14427,2.99251 0.27507,6.0199 0.49624,8.97197 v 0 c 0.22117,1.02182 0.348,2.14589 0.33611,3.2335 v 0 l 0.002,0.8268 c -0.01,0.27508 -0.046,0.54936 -0.0634,0.82601 v 0 c -0.0246,0.27508 -0.0396,0.55411 -0.0729,0.82998 v 0 l -0.14903,0.82125 c -0.40429,2.19266 -1.21286,4.38849 -2.54224,6.32272 v 0 c -1.30323,1.94533 -3.06782,3.66473 -5.19072,4.93228 v 0 c -0.51923,0.34008 -1.09712,0.56442 -1.65519,0.849 v 0 c -0.56997,0.25447 -1.16609,0.4463 -1.75983,0.66668 v 0 c -0.60723,0.15379 -1.22317,0.31233 -1.84624,0.43124 v 0 c -0.62546,0.0809 -1.25884,0.18232 -1.89539,0.20452 v 0 c -0.27269,0.0151 -0.5446,0.023 -0.81729,0.023 v 0 c -4.85619,0 -9.77658,-2.39401 -12.80793,-6.31003 m 3.51015,-29.96313 -0.0198,0.0912 -0.0436,0.18153 c -0.0317,0.10385 -0.0587,0.27983 -0.0872,0.43124 v 0 c -0.11811,0.61594 -0.20373,1.33573 -0.28538,2.03649 v 0 c -0.15378,1.42452 -0.27031,2.89421 -0.34404,4.3647 v 0 c -0.14903,2.94495 -0.26159,5.92319 -0.25763,8.8721 v 0 l -0.0436,0.3916 c -0.008,0.16092 -0.0151,0.6421 0.007,1.09712 v 0 l 0.0816,1.55056 c 0.0761,0.84265 0.1958,1.67025 0.41934,2.4701 v 0 c 0.45185,1.59574 1.2089,3.08447 2.23388,4.37342 v 0 c 0.24019,0.33532 0.54539,0.61674 0.80778,0.93462 v 0 c 0.30202,0.27903 0.5985,0.566 0.91242,0.83314 v 0 c 0.63734,0.52003 1.30481,1.01944 2.04441,1.39439 v 0 c 1.46257,0.77449 3.07099,1.29768 4.78405,1.50141 v 0 c 1.7099,0.19818 3.50461,0.11019 5.25255,-0.41776 v 0 c 1.7527,-0.50021 3.46497,-1.40628 4.93149,-2.69683 v 0 c 1.46732,-1.28578 2.62865,-2.9933 3.32942,-4.90692 v 0 l 0.24812,-0.72533 c 0.0674,-0.24654 0.11811,-0.49704 0.17836,-0.74754 v 0 c 0.1411,-0.49861 0.19263,-1.01071 0.24178,-1.52518 v 0 c 0.14348,-1.03846 0.0729,-2.05393 -0.0698,-3.12727 v 0 c -0.0476,-3.04007 -0.24654,-6.00167 -0.55808,-8.98942 v 0 c -0.17439,-1.48714 -0.35355,-2.97348 -0.62703,-4.43842 v 0 c -0.1316,-0.73327 -0.27349,-1.46019 -0.44551,-2.17125 v 0 c -0.10068,-0.33929 -0.17916,-0.71107 -0.30203,-1.0131 v 0 c -0.0555,-0.15933 -0.11177,-0.32501 -0.1736,-0.41221 v 0 c -0.0349,-0.0594 -0.042,-0.0959 -0.0935,-0.17361 v 0 l -0.15617,-0.23623 c -1.66391,-2.50181 -3.30959,-5.01948 -5.0282,-7.38099 v 0 c -0.42252,-0.57789 -0.8712,-1.16688 -1.285,-1.60525 v 0 c -0.42093,-0.4463 -0.85693,-0.74991 -1.30164,-0.94333 v 0 c -0.86803,-0.38923 -2.24498,-0.37813 -3.70833,-0.33136 v 0 c -1.45939,0.0476 -2.91324,0.12208 -3.77968,0.50972 v 0 c -0.44075,0.19025 -0.76814,0.43679 -1.11773,0.8268 v 0 c -0.32581,0.36386 -0.70473,0.9362 -1.0781,1.53074 v 0 c -1.49744,2.42096 -2.89817,5.0726 -4.2989,7.70997 v 0 l -0.26635,0.5002 c -0.0341,0.069 -0.11257,0.20135 -0.11019,0.21879 v 0 c 0.009,0.007 0.0143,0.0127 0.0143,0.0127 v 0 c -8e-4,0.002 -8e-4,7.9e-4 -0.002,7.9e-4 v 0 c 0,0 0,0 0,0 v 0 c -7.9e-4,0 -0.002,0.002 -0.004,0.009 m 108.41598,30.10978 c -2.89183,-1.97941 -4.14591,-2.60645 -8.15785,-4.78722 v 0 c -5.0948,-2.77055 -34.14789,-5.21608 -43.25462,-6.73334 v 0 c -9.10595,-1.51805 -16.91104,-3.46814 -23.21473,-10.15154 v 0 c -7.09165,-7.51971 -5.01552,-6.55656 0.23782,-3.56723 v 0 c 6.15386,3.50144 14.30141,5.32865 23.06807,6.77774 v 0 c 13.58955,2.24577 38.52844,3.69802 42.51818,6.92676 v 0 c 4.44953,3.59894 9.74092,11.62599 9.00607,11.62679 v 0 c -0.0452,0 -0.11178,-0.0301 -0.20294,-0.092 m -189.31191,-11.5351 c 3.99054,-3.22874 28.92863,-4.68099 42.51898,-6.92676 v 0 c 8.76666,-1.44909 16.91421,-3.2763 23.06728,-6.77774 v 0 c 5.25254,-2.98933 7.32946,-3.95248 0.23781,3.56723 v 0 c -6.30368,6.6834 -14.10878,8.63349 -23.21472,10.15154 v 0 c -9.10674,1.51726 -38.15983,3.96279 -43.25462,6.73334 v 0 c -4.01274,2.18077 -5.26523,2.80781 -8.15786,4.78722 v 0 c -0.0904,0.0618 -0.15775,0.092 -0.20214,0.092 v 0 c -0.73643,0 4.55575,-8.02785 9.00527,-11.62679 m 99.43291,-4.5169 c -0.36307,-0.0277 -0.96712,-0.0269 -1.65044,-0.0262 v 0 c -1.55372,0.002 -3.51174,0.005 -3.93822,-0.33136 v 0 c -0.61356,-0.48514 -0.74674,-0.76735 -0.93144,-1.69086 v 0 c -0.18391,-0.9251 -0.19184,-5.47768 0,-6.20936 v 0 c 0.19263,-0.73168 1.55214,3.32228 1.55214,3.32228 v 0 c 0,0 3.16611,0.0428 4.03572,0 v 0 c 0.8712,-0.0428 2.58981,3.16611 2.67067,3.88035 v 0 c 0.0737,0.65082 -0.44392,1.067 -1.43561,1.067 v 0 c -0.0967,0 -0.19739,-0.004 -0.30282,-0.0119 m 78.5892,-0.96791 c -2.38132,-0.501 -6.40991,-3.11696 -13.39613,-4.1578 v 0 c -5.7361,-0.85376 -16.49645,-1.94771 -25.68483,-2.85378 v 0 c -8.44165,-0.83156 -12.99105,-1.2739 -25.20762,-6.42101 v 0 c -5.8994,-2.48517 -4.77137,-3.36271 0.61753,-1.60764 v 0 c 5.70994,1.85893 10.84041,1.82801 21.49928,2.55969 v 0 c 13.74255,0.94175 20.19923,1.04401 22.83105,1.4261 v 0 c 10.28472,1.49506 13.07191,1.81294 16.40846,6.42101 v 0 c 1.55452,2.14668 3.43009,4.63819 2.96952,4.63819 v 0 c -0.0111,0 -0.0238,-0.002 -0.0373,-0.005 m -172.6031,-4.63343 c 3.33734,-4.60807 6.12375,-4.92595 16.40925,-6.42101 v 0 c 2.63182,-0.38209 9.08851,-0.48435 22.83026,-1.4261 v 0 c 10.65888,-0.73168 15.78934,-0.70076 21.49929,-2.55969 v 0 c 5.38968,-1.75507 6.51772,-0.87753 0.61832,1.60764 v 0 c -12.21736,5.14711 -16.76677,5.58945 -25.20921,6.42101 v 0 c -9.18759,0.90607 -19.94793,2.00002 -25.68404,2.85378 v 0 c -6.98621,1.04084 -11.0148,3.6568 -13.39613,4.1578 v 0 c -0.0143,0.003 -0.0262,0.005 -0.0373,0.005 v 0 c -0.45978,0 1.415,-2.49151 2.96951,-4.63819 m 118.71101,-40.8836 c 0,-2.01271 1.61001,-3.45863 3.82961,-3.45863 v 0 c 2.21882,0 3.82883,1.44592 3.82883,3.45863 v 0 c 0,2.02856 -1.61001,3.45862 -3.82883,3.45862 v 0 c -2.2196,0 -3.82961,-1.43006 -3.82961,-3.45862 m 26.45535,2.47724 v -31.53192 h 5.17565 l 0.55094,2.38291 h 0.16409 c 1.77331,-1.91679 3.83359,-2.92354 5.83044,-2.92354 v 0 c 4.8332,0 9.39291,4.39561 9.39291,12.09449 v 0 c 0,6.84749 -3.34686,11.31603 -8.75319,11.31603 v 0 c -2.10704,0 -4.21408,-0.95284 -5.90812,-2.47248 v 0 l 0.16409,3.43088 v 7.70363 z m 6.61681,-25.24488 v 9.16778 c 1.29134,1.39201 2.47645,2.00161 3.83676,2.00161 v 0 c 2.64133,0 3.87955,-2.00558 3.87955,-6.01356 v 0 c 0,-4.62233 -1.84703,-6.56845 -4.15384,-6.56845 v 0 c -1.11773,0 -2.37735,0.36386 -3.56247,1.41262 M 53.569848,693.26523 c 0,-4.26245 2.879942,-6.7595 5.91922,-7.99614 v 0 l 3.81297,-1.62507 c 2.562855,-1.05353 4.229939,-1.64648 4.229939,-3.49351 v 0 c 0,-1.74081 -1.354753,-2.83079 -4.122922,-2.83079 v 0 c -2.413824,0 -5.119369,1.24932 -7.205801,3.06543 v 0 l -3.808214,-4.55019 c 2.991716,-2.79671 7.04805,-4.24183 10.865777,-4.24183 v 0 c 6.990181,0 11.052064,4.22042 11.052064,9.09326 v 0 c 0,4.14512 -2.237841,6.5312 -5.819337,7.98028 v 0 l -3.738455,1.5133 c -2.559684,1.01864 -4.478853,1.67343 -4.478853,3.47289 v 0 c 0,1.6766 1.455429,2.62945 3.742418,2.62945 v 0 c 2.319491,0 4.156217,-0.81571 6.088069,-2.29809 v 0 l 3.348438,4.17921 c -2.52639,2.5137 -6.058738,3.84467 -9.436507,3.84467 v 0 c -6.106301,0 -10.448806,-3.88193 -10.448806,-8.74287 m 147.590482,8.20383 v -29.3353 h 18.21189 v 5.56171 h -11.58001 v 23.77359 z m 107.51229,-10.90779 h -0.16409 l -0.47722,3.90254 h -5.3984 v -22.33005 h 6.61681 v 12.94032 c 1.19066,3.04324 3.23508,4.12926 4.91881,4.12926 v 0 c 0.95839,0 1.61476,-0.16409 2.40907,-0.35989 v 0 l 1.10187,5.70994 c -0.64527,0.28617 -1.38725,0.45026 -2.66353,0.45026 v 0 c -2.27668,0 -4.71825,-1.46097 -6.34332,-4.44238 m -147.48823,-7.27081 c 0,-7.40794 5.22797,-11.69733 10.87846,-11.69733 v 0 c 5.65049,0 10.87608,4.28939 10.87608,11.69733 v 0 c 0,7.4238 -5.22559,11.71319 -10.87608,11.71319 v 0 c -5.65049,0 -10.87846,-4.28939 -10.87846,-11.71319 m 6.7817,0 c 0,3.8645 1.35951,6.37345 4.09676,6.37345 v 0 c 2.73567,0 4.09518,-2.50895 4.09518,-6.37345 v 0 c 0,-3.86449 -1.35951,-6.35759 -4.09518,-6.35759 v 0 c -2.73725,0 -4.09676,2.4931 -4.09676,6.35759 m -39.75557,4.72301 c 0,-3.69168 3.17167,-5.507 5.90892,-6.56687 v 0 c 2.29809,-0.89973 4.51135,-1.56641 4.51135,-3.03848 v 0 c 0,-1.16926 -0.85296,-1.91996 -2.82128,-1.91996 v 0 c -1.86843,0 -3.73766,0.81491 -5.76067,2.34565 v 0 l -2.97666,-4.12213 c 2.26083,-1.84149 5.62909,-3.11855 8.57324,-3.11855 v 0 c 5.98422,0 9.17174,3.16135 9.17174,7.20263 v 0 c 0,4.08249 -3.18672,5.67347 -6.01514,6.71907 v 0 c -2.31236,0.84186 -4.40434,1.38805 -4.40434,2.81097 v 0 c 0,1.11456 0.84108,1.78283 2.55017,1.78283 v 0 c 1.5466,0 3.1138,-0.75071 4.7024,-1.9057 v 0 l 2.9608,3.9731 c -1.90093,1.44513 -4.44793,2.82762 -7.8701,2.82762 v 0 c -5.15186,0 -8.53043,-2.83317 -8.53043,-6.99018 m -37.260088,-4.72301 c 0,-7.39209 4.930702,-11.69733 11.295428,-11.69733 v 0 c 2.64768,0 5.63464,0.93223 7.92242,2.51608 v 0 l -2.18711,3.98816 c -1.62031,-0.94729 -3.13995,-1.46018 -4.83003,-1.46018 v 0 c -2.97903,0 -5.19705,1.48555 -5.790796,4.72459 v 0 h 13.358876 c 0.12683,0.54064 0.27507,1.73209 0.27507,2.92434 v 0 c 0,6.09441 -3.15026,10.71753 -9.51102,10.71753 v 0 c -5.364321,0 -10.532838,-4.46854 -10.532838,-11.71319 m 10.681078,6.67072 c 2.64212,0 3.71071,-1.76776 3.71071,-4.2236 v 0 h -8.055598 c 0.44947,2.82128 2.254488,4.2236 4.344888,4.2236 m 135.78217,-17.82742 h 6.61681 v 22.33005 h -6.61681 z m 95.19108,10.04056 c 0,-6.65249 4.43683,-10.52729 10.1658,-10.52729 v 0 c 2.38291,0 5.07181,0.8387 7.13049,2.2648 v 0 l -1.96911,3.58942 c -1.4578,-0.85296 -2.82603,-1.31512 -4.34567,-1.31512 v 0 c -2.68176,0 -4.67862,1.33732 -5.21212,4.25372 v 0 h 12.02235 c 0.11415,0.48515 0.24812,1.55848 0.24812,2.63182 v 0 c 0,5.48481 -2.83634,9.64579 -8.55976,9.64579 v 0 c -4.82844,0 -9.4801,-4.02304 -9.4801,-10.54314 m 9.61328,6.00404 c 2.37736,0 3.33972,-1.59098 3.33972,-3.80108 v 0 h -7.25099 c 0.40508,2.53907 2.02936,3.80108 3.91127,3.80108"
       style="fill:url(#linearGradient28);stroke:none;stroke-width:0.792717"
       id="path30" /></g></svg>
